<svg id="Layer_1" data-name="Layer 1" xmlns="http://www.w3.org/2000/svg" viewBox="0 0 117.44 20.83"><defs><style>.cls-1{fill:#bcbec0;}.cls-2{fill:#b2d236;}.cls-3{fill:#fff;}.cls-4{fill:#231f20;}</style></defs><title>avarda_shop</title><path class="cls-1" d="M241.15,418.83l-3.06,7.32a3.55,3.55,0,0,1-.61,1,2.53,2.53,0,0,1-.7.56,2.59,2.59,0,0,1-.74.25,4.52,4.52,0,0,1-.78.06l-1,0-0.75,0V426h0.14l0.17,0,0.3,0,0.32,0h0.31a2.88,2.88,0,0,0,.78-0.1,0.72,0.72,0,0,0,.49-0.35l-3.39-6.87h2.48l2,4.29,1.66-4.29h2.39Z" transform="translate(-232.42 -407.34)"/><path class="cls-1" d="M251.37,428h-2.29v-6.07l-1.67,3.92h-1.57l-1.67-3.92V428H242v-9.16h2.65l2,4.52,2-4.52h2.65V428Z" transform="translate(-232.42 -407.34)"/><path class="cls-1" d="M261,428h-2.3v-4.06h-3.13V428h-2.3v-9.16h2.3v3.35h3.13v-3.35H261V428Z" transform="translate(-232.42 -407.34)"/><path class="cls-1" d="M270.1,425.06a3,3,0,0,1-.26,1.23,2.47,2.47,0,0,1-.7.92,3.25,3.25,0,0,1-1.14.6,5.47,5.47,0,0,1-1.49.18h-3.63v-9.16h2.29v3.44h1.38a8.55,8.55,0,0,1,1.46.11,2.65,2.65,0,0,1,1.19.53,2.13,2.13,0,0,1,.69.93A3.36,3.36,0,0,1,270.1,425.06Zm-2.37.07a1.8,1.8,0,0,0,0-.43,0.81,0.81,0,0,0-.21-0.37,1.1,1.1,0,0,0-.46-0.27,2.67,2.67,0,0,0-.8-0.09h-1v2.33h1a1.85,1.85,0,0,0,1.11-.3A1,1,0,0,0,267.73,425.13Zm5.36,2.86h-2.3v-9.16h2.3V428Z" transform="translate(-232.42 -407.34)"/><path class="cls-1" d="M282.89,428h-2.26v-6l-3.52,6H275v-9.16h2.26v5.45l3.25-5.45h2.39V428Zm-0.69-12.17a2.21,2.21,0,0,1-.8,1.77,4.8,4.8,0,0,1-4.89,0,2.2,2.2,0,0,1-.81-1.76h2a1.49,1.49,0,0,0,.28,1,1.62,1.62,0,0,0,1.89,0,1.49,1.49,0,0,0,.28-1h2Z" transform="translate(-232.42 -407.34)"/><path class="cls-1" d="M297.79,428H295.5v-6.07l-1.67,3.92h-1.57l-1.67-3.92V428h-2.16v-9.16h2.65l2,4.52,2-4.52h2.65V428Z" transform="translate(-232.42 -407.34)"/><path class="cls-1" d="M298.7,428l3.09-9.16h2.51l3.09,9.16H305l-0.57-1.87h-2.88L301,428H298.7Zm5.25-3.53-0.93-3-0.93,3h1.87Z" transform="translate(-232.42 -407.34)"/><path class="cls-1" d="M314.47,420.58H310.6V428h-2.3v-9.16h6.17v1.75Z" transform="translate(-232.42 -407.34)"/><path class="cls-1" d="M314.44,428l3.09-9.16H320l3.09,9.16h-2.37l-0.57-1.87h-2.88L316.74,428h-2.31Zm5.25-3.53-0.93-3-0.93,3h1.87Z" transform="translate(-232.42 -407.34)"/><path class="cls-1" d="M330,423.65a2,2,0,0,1,.49.66,2.22,2.22,0,0,1,.18.95,2.5,2.5,0,0,1-1.05,2.14,5.09,5.09,0,0,1-3,.77,8.83,8.83,0,0,1-1.71-.16,8,8,0,0,1-1.49-.44v-2h0.21a6.21,6.21,0,0,0,1.21.62,3.91,3.91,0,0,0,1.47.3,2.83,2.83,0,0,0,1.48-.33,1.11,1.11,0,0,0,.55-1,1,1,0,0,0-.4-0.88,2.61,2.61,0,0,0-1.44-.29h-1.32v-1.64h1.25a2.36,2.36,0,0,0,1.26-.26,0.87,0.87,0,0,0,.4-0.78,0.7,0.7,0,0,0-.44-0.67,2.75,2.75,0,0,0-1.17-.21,3.5,3.5,0,0,0-.78.09,6.32,6.32,0,0,0-.73.22,5.23,5.23,0,0,0-.61.27l-0.43.22h-0.22v-1.91a9.67,9.67,0,0,1,1.31-.38,8.11,8.11,0,0,1,1.9-.22,4.82,4.82,0,0,1,2.65.59,1.86,1.86,0,0,1,.88,1.63,2,2,0,0,1-.48,1.35,2.34,2.34,0,0,1-1.25.76v0.09a3.31,3.31,0,0,1,.66.2A2.34,2.34,0,0,1,330,423.65Z" transform="translate(-232.42 -407.34)"/><path class="cls-1" d="M340,428h-2.26v-6l-3.52,6H332v-9.16h2.26v5.45l3.25-5.45H340V428Z" transform="translate(-232.42 -407.34)"/><path class="cls-1" d="M349.54,428h-2.3v-4.06h-3.13V428h-2.3v-9.16h2.3v3.35h3.13v-3.35h2.3V428Z" transform="translate(-232.42 -407.34)"/><rect class="cls-2" x="62.96" width="54.47" height="7.05"/><path class="cls-3" d="M300.93,413.2a4.66,4.66,0,0,1-1-.1,5.77,5.77,0,0,1-.83-0.25v-1.1h0.12a2.94,2.94,0,0,0,.85.45,2.79,2.79,0,0,0,.9.16l0.29,0a1.11,1.11,0,0,0,.29-0.07,0.63,0.63,0,0,0,.23-0.15,0.34,0.34,0,0,0,.09-0.25,0.33,0.33,0,0,0-.15-0.28,1,1,0,0,0-.36-0.16l-0.56-.12a4.92,4.92,0,0,1-.56-0.14,1.74,1.74,0,0,1-.85-0.51,1.23,1.23,0,0,1-.26-0.8,1.21,1.21,0,0,1,.61-1,2.71,2.71,0,0,1,1.52-.4,5,5,0,0,1,.91.08,4.29,4.29,0,0,1,.81.23v1.05h-0.11a2.63,2.63,0,0,0-.7-0.37,2.44,2.44,0,0,0-.85-0.15l-0.3,0a1.24,1.24,0,0,0-.28.08,0.56,0.56,0,0,0-.21.15,0.32,0.32,0,0,0-.09.22,0.33,0.33,0,0,0,.14.28,1.51,1.51,0,0,0,.54.19l0.5,0.1a4.93,4.93,0,0,1,.51.14,1.77,1.77,0,0,1,.79.47,1.12,1.12,0,0,1,.26.77,1.29,1.29,0,0,1-.6,1.11A2.8,2.8,0,0,1,300.93,413.2Z" transform="translate(-232.42 -407.34)"/><path class="cls-3" d="M309.13,413.11h-1.28v-3.06l-0.93,2H306l-0.93-2v3.06h-1.21V408.5h1.48l1.14,2.28,1.13-2.28h1.48v4.62Z" transform="translate(-232.42 -407.34)"/><path class="cls-3" d="M309.71,413.11l1.73-4.62h1.41l1.73,4.62h-1.33l-0.32-.94h-1.61l-0.32.94h-1.29Zm2.94-1.78-0.52-1.52-0.52,1.52h1Z" transform="translate(-232.42 -407.34)"/><path class="cls-3" d="M319.9,413.11h-1.57l-1.43-1.69h-0.46v1.69h-1.28V408.5h2.06a5,5,0,0,1,.75,0,1.69,1.69,0,0,1,.58.2,1.28,1.28,0,0,1,.44.4,1.09,1.09,0,0,1,.16.62,1.34,1.34,0,0,1-.26.86,1.84,1.84,0,0,1-.71.53Zm-2.07-3.2a0.58,0.58,0,0,0-.07-0.3,0.48,0.48,0,0,0-.25-0.19,0.94,0.94,0,0,0-.27-0.06h-0.8v1.24h0.37a3,3,0,0,0,.46,0,0.71,0.71,0,0,0,.32-0.13,0.55,0.55,0,0,0,.18-0.21A0.7,0.7,0,0,0,317.83,409.91Z" transform="translate(-232.42 -407.34)"/><path class="cls-3" d="M321.34,413.11v-3.74h-1.52V408.5h4.32v0.88h-1.52v3.74h-1.29Z" transform="translate(-232.42 -407.34)"/><path class="cls-3" d="M325.93,413.11h-1.22v-1.22h1.22v1.22Z" transform="translate(-232.42 -407.34)"/><path class="cls-3" d="M328.6,413.2a4.65,4.65,0,0,1-1-.1,5.77,5.77,0,0,1-.83-0.25v-1.1h0.12a2.94,2.94,0,0,0,.85.45,2.79,2.79,0,0,0,.9.16l0.29,0a1.12,1.12,0,0,0,.29-0.07,0.63,0.63,0,0,0,.23-0.15,0.34,0.34,0,0,0,.09-0.25,0.33,0.33,0,0,0-.15-0.28,1,1,0,0,0-.36-0.16l-0.56-.12a4.92,4.92,0,0,1-.56-0.14,1.74,1.74,0,0,1-.85-0.51,1.23,1.23,0,0,1-.26-0.8,1.21,1.21,0,0,1,.61-1,2.71,2.71,0,0,1,1.52-.4,5,5,0,0,1,.91.08,4.29,4.29,0,0,1,.81.23v1.05h-0.11a2.63,2.63,0,0,0-.7-0.37,2.44,2.44,0,0,0-.85-0.15l-0.3,0a1.25,1.25,0,0,0-.28.08,0.56,0.56,0,0,0-.21.15,0.32,0.32,0,0,0-.09.22,0.33,0.33,0,0,0,.14.28,1.5,1.5,0,0,0,.54.19l0.5,0.1a4.93,4.93,0,0,1,.51.14,1.77,1.77,0,0,1,.79.47,1.12,1.12,0,0,1,.26.77,1.29,1.29,0,0,1-.6,1.11A2.8,2.8,0,0,1,328.6,413.2Z" transform="translate(-232.42 -407.34)"/><path class="cls-3" d="M335.89,413.11H334.6v-2h-1.75v2h-1.29V408.5h1.29v1.69h1.75V408.5h1.29v4.62Z" transform="translate(-232.42 -407.34)"/><path class="cls-3" d="M341.69,410.81a2.33,2.33,0,0,1-.67,1.76,2.52,2.52,0,0,1-1.82.64,2.49,2.49,0,0,1-1.82-.65,2.66,2.66,0,0,1,0-3.51,2.9,2.9,0,0,1,3.65,0A2.34,2.34,0,0,1,341.69,410.81Zm-1.33,0a2.27,2.27,0,0,0-.09-0.7,1.4,1.4,0,0,0-.25-0.48,1,1,0,0,0-.37-0.27,1.22,1.22,0,0,0-.86,0,1,1,0,0,0-.37.27,1.35,1.35,0,0,0-.26.48,2.67,2.67,0,0,0,0,1.42,1.38,1.38,0,0,0,.25.47,1,1,0,0,0,.38.27,1.18,1.18,0,0,0,.43.08,1.15,1.15,0,0,0,.44-0.09A1,1,0,0,0,340,412a1.46,1.46,0,0,0,.25-0.47A2.25,2.25,0,0,0,340.36,410.8Z" transform="translate(-232.42 -407.34)"/><path class="cls-3" d="M346.47,410a1.67,1.67,0,0,1-.11.61,1.27,1.27,0,0,1-.33.49,2.28,2.28,0,0,1-.29.22,1.77,1.77,0,0,1-.35.17,2.28,2.28,0,0,1-.41.11,2.74,2.74,0,0,1-.5,0h-0.67v1.51h-1.29V408.5h2a3.56,3.56,0,0,1,.77.07,2,2,0,0,1,.58.23,1.22,1.22,0,0,1,.45.46A1.42,1.42,0,0,1,346.47,410Zm-1.32,0a0.55,0.55,0,0,0-.1-0.34,0.53,0.53,0,0,0-.25-0.19,1.14,1.14,0,0,0-.35-0.08h-0.63v1.38h0.43l0.28,0,0.22-.06a0.61,0.61,0,0,0,.35-0.34A1,1,0,0,0,345.15,410Z" transform="translate(-232.42 -407.34)"/><path class="cls-4" d="M232.42,414.4l3.92-7h2.84l3.81,7h-2.31L240,413.16h-4.51l-0.67,1.24h-2.39Zm3.83-2.7h3l-1.52-2.79Z" transform="translate(-232.42 -407.34)"/><path class="cls-4" d="M245.85,414.4l-3.72-7h2.34l2.75,5.27,2.82-5.27h2.36l-3.86,7h-2.69Z" transform="translate(-232.42 -407.34)"/><path class="cls-4" d="M251.49,414.4l3.92-7h2.84l3.81,7h-2.31l-0.69-1.24h-4.51l-0.67,1.24h-2.4Zm3.83-2.7h3l-1.53-2.79Z" transform="translate(-232.42 -407.34)"/><path class="cls-4" d="M263,414.4v-7h6a6.76,6.76,0,0,1,1.49.12,1.49,1.49,0,0,1,1.09.9,3.56,3.56,0,0,1,.18,1.25,1.94,1.94,0,0,1-.59,1.67,3.49,3.49,0,0,1-1.35.37l0.35,0a2.22,2.22,0,0,1,1,.2,1.46,1.46,0,0,1,.5,1.33v1.11h-2.15v-0.87a0.72,0.72,0,0,0-.56-0.87,4.82,4.82,0,0,0-.61,0h-3.26v1.77H263Zm2.11-3.47h3.31a2.84,2.84,0,0,0,.87-0.09,0.68,0.68,0,0,0,.36-0.7,1,1,0,0,0-.24-0.84,1.63,1.63,0,0,0-.91-0.16h-3.39v1.79Z" transform="translate(-232.42 -407.34)"/><path class="cls-4" d="M273.56,414.4v-7h6a9.17,9.17,0,0,1,1.56.12,1.85,1.85,0,0,1,1.39.92,5.66,5.66,0,0,1,.36,2.45,13.49,13.49,0,0,1-.05,1.53,2,2,0,0,1-1.71,1.89,8.77,8.77,0,0,1-1.26.06h-6.3Zm2.12-1.65h3.56a3.15,3.15,0,0,0,.86-0.08,0.87,0.87,0,0,0,.6-0.72,5.7,5.7,0,0,0,.05-1,2.67,2.67,0,0,0-.23-1.36,1.47,1.47,0,0,0-1.25-.42h-3.59v3.59Z" transform="translate(-232.42 -407.34)"/><path class="cls-4" d="M283.63,414.4l3.92-7h2.84l3.81,7H291.9l-0.69-1.24H286.7L286,414.4h-2.4Zm3.83-2.7h3l-1.52-2.79Z" transform="translate(-232.42 -407.34)"/></svg>