<svg id="Layer_1" data-name="Layer 1" xmlns="http://www.w3.org/2000/svg" xmlns:xlink="http://www.w3.org/1999/xlink" viewBox="0 0 32.69 33.86"><defs><style>.cls-1{fill:#fff;stroke:#fff;stroke-width:0.1px;}.cls-2{fill:#839e25;}.cls-3{fill:#6d861d;}.cls-4{fill:url(#linear-gradient);}.cls-5{fill:url(#linear-gradient-2);}</style><linearGradient id="linear-gradient" x1="19.28" y1="26.01" x2="9.73" y2="2.7" gradientUnits="userSpaceOnUse"><stop offset="0" stop-color="#839e25"/><stop offset="0.04" stop-color="#89a527"/><stop offset="0.22" stop-color="#a0be2f"/><stop offset="0.39" stop-color="#adcd33"/><stop offset="0.52" stop-color="#b2d235"/><stop offset="0.57" stop-color="#b5d43d"/><stop offset="0.65" stop-color="#bdd953"/><stop offset="0.74" stop-color="#cbe177"/><stop offset="0.84" stop-color="#deeca8"/><stop offset="0.96" stop-color="#f6fae7"/><stop offset="1" stop-color="#fff"/></linearGradient><linearGradient id="linear-gradient-2" x1="25.41" y1="34.9" x2="23.77" y2="19.51" gradientUnits="userSpaceOnUse"><stop offset="0" stop-color="#b2d235"/><stop offset="0.52" stop-color="#b2d235"/><stop offset="0.57" stop-color="#b5d43d"/><stop offset="0.65" stop-color="#bdd953"/><stop offset="0.74" stop-color="#cbe177"/><stop offset="0.84" stop-color="#deeca8"/><stop offset="0.96" stop-color="#f6fae7"/><stop offset="1" stop-color="#fff"/></linearGradient></defs><title>logo_avarda</title><path class="cls-1" d="M223.83,357.2l-16.29,6.54v20.69L223.83,391l16.28-6.51,0-20.73Zm15.79,26.93-15.79,6.31L208,384.12V364.05l15.8-6.35L239.64,364Z" transform="translate(-207.49 -357.14)"/><rect class="cls-1" x="16.05" y="0.56" width="0.57" height="20.5"/><polygon class="cls-1" points="0.86 27.1 16.29 21.11 32.06 27.26 32.37 26.74 16.23 20.61 0.33 26.88 0.86 27.1"/><polygon class="cls-2" points="0.55 26.8 6.92 8.09 16.35 4.49 10.15 23.01 0.55 26.8"/><polyline class="cls-3" points="11.34 16.58 2.73 20.03 14.8 24.83"/><polygon class="cls-4" points="25.82 29.51 16.35 4.49 6.91 8.06 16.38 33.3 25.82 29.51"/><polygon class="cls-5" points="16.34 33.3 21.38 18.12 19.57 18.7 28.92 8.09 32.14 14.64 30.95 15.03 26.09 29.41 16.34 33.3"/></svg>