<svg id="Layer_1" data-name="Layer 1" xmlns="http://www.w3.org/2000/svg" xmlns:xlink="http://www.w3.org/1999/xlink" viewBox="0 0 304.33 248.46"><defs><style>.cls-1{fill:#231f20;}.cls-2,.cls-7,.cls-8{fill:#fff;}.cls-2,.cls-7{stroke:#fff;}.cls-2{stroke-width:0.1px;}.cls-3{fill:#839e25;}.cls-4{fill:#6d861d;}.cls-5{fill:url(#linear-gradient);}.cls-6{fill:url(#linear-gradient-2);}.cls-7{stroke-width:0.11px;}.cls-9{fill:url(#linear-gradient-3);}.cls-10{fill:url(#linear-gradient-4);}</style><linearGradient id="linear-gradient" x1="72.77" y1="72.65" x2="63.21" y2="49.35" gradientUnits="userSpaceOnUse"><stop offset="0" stop-color="#839e25"/><stop offset="0.04" stop-color="#89a527"/><stop offset="0.22" stop-color="#a0be2f"/><stop offset="0.39" stop-color="#adcd33"/><stop offset="0.52" stop-color="#b2d235"/><stop offset="0.57" stop-color="#b5d43d"/><stop offset="0.65" stop-color="#bdd953"/><stop offset="0.74" stop-color="#cbe177"/><stop offset="0.84" stop-color="#deeca8"/><stop offset="0.96" stop-color="#f6fae7"/><stop offset="1" stop-color="#fff"/></linearGradient><linearGradient id="linear-gradient-2" x1="78.89" y1="81.54" x2="77.25" y2="66.15" gradientUnits="userSpaceOnUse"><stop offset="0" stop-color="#b2d235"/><stop offset="0.52" stop-color="#b2d235"/><stop offset="0.57" stop-color="#b5d43d"/><stop offset="0.65" stop-color="#bdd953"/><stop offset="0.74" stop-color="#cbe177"/><stop offset="0.84" stop-color="#deeca8"/><stop offset="0.96" stop-color="#f6fae7"/><stop offset="1" stop-color="#fff"/></linearGradient><linearGradient id="linear-gradient-3" x1="72.77" y1="240.65" x2="63.21" y2="217.35" xlink:href="#linear-gradient"/><linearGradient id="linear-gradient-4" x1="78.89" y1="249.54" x2="77.25" y2="234.15" xlink:href="#linear-gradient-2"/></defs><title>logo_avarda_text</title><rect class="cls-1" width="304.33" height="123.67"/><path class="cls-2" d="M223.83,357.2l-16.29,6.54v20.69L223.83,391l16.28-6.51,0-20.73Zm15.79,26.93-15.79,6.31L208,384.12V364.05l15.8-6.35L239.64,364Z" transform="translate(-154 -310.5)"/><rect class="cls-2" x="69.53" y="47.2" width="0.57" height="20.5"/><polygon class="cls-2" points="54.35 73.74 69.78 67.75 85.55 73.9 85.86 73.39 69.72 67.25 53.82 73.53 54.35 73.74"/><polygon class="cls-3" points="54.04 73.44 60.4 54.73 69.84 51.14 63.63 69.65 54.04 73.44"/><polyline class="cls-4" points="64.82 63.22 56.22 66.67 68.29 71.48"/><polygon class="cls-5" points="79.31 76.15 69.84 51.14 60.39 54.71 69.87 79.94 79.31 76.15"/><polygon class="cls-6" points="69.83 79.95 74.87 64.77 73.06 65.35 82.4 54.73 85.63 61.28 84.44 61.67 79.58 76.05 69.83 79.95"/><path class="cls-7" d="M240.14,393.17a0.56,0.56,0,1,1-.56.56A0.55,0.55,0,0,1,240.14,393.17Zm0,1a0.47,0.47,0,1,0-.45-0.47A0.46,0.46,0,0,0,240.14,394.2Zm-0.2-.75h0.25a0.16,0.16,0,0,1,.18.16,0.13,0.13,0,0,1-.09.13h0a0.11,0.11,0,0,1,.08.13,0.21,0.21,0,0,0,0,.13h-0.11a0.18,0.18,0,0,1,0-.13c0-.05,0-0.1-0.12-0.1H240V394h-0.1v-0.56Zm0.1,0.25h0.12a0.08,0.08,0,0,0,.1-0.09c0-.07,0-0.08-0.11-0.08H240v0.17Z" transform="translate(-154 -310.5)"/><path class="cls-8" d="M207.59,398.66V399h-0.8v0.36h0.93v0.32h-1.31V398h1.29v0.32h-0.91v0.33h0.8Z" transform="translate(-154 -310.5)"/><path class="cls-8" d="M210.21,398H211a0.48,0.48,0,0,1,.56.46,0.4,0.4,0,0,1-.29.41h0a0.36,0.36,0,0,1,.23.4,0.58,0.58,0,0,0,.06.36h-0.39a0.8,0.8,0,0,1-.06-0.42,0.22,0.22,0,0,0-.26-0.18h-0.3v0.6h-0.39V398Zm0.39,0.73H211a0.2,0.2,0,0,0,.25-0.21c0-.16-0.1-0.21-0.26-0.21H210.6v0.42Z" transform="translate(-154 -310.5)"/><path class="cls-8" d="M214.91,398a0.52,0.52,0,0,1,.62.53,0.53,0.53,0,0,1-.63.54h-0.37v0.56h-0.39V398h0.76Zm-0.38.75h0.3a0.22,0.22,0,1,0,0-.44h-0.3v0.44Z" transform="translate(-154 -310.5)"/><path class="cls-8" d="M220.08,399.11a0.27,0.27,0,0,0,.33.26c0.14,0,.29,0,0.29-0.17s-0.22-.21-0.41-0.26a0.51,0.51,0,0,1-.54-0.5c0-.26.18-0.48,0.67-0.48a0.53,0.53,0,0,1,.62.5h-0.36c0-.09-0.07-0.18-0.28-0.18s-0.25.07-.25,0.16a0.31,0.31,0,0,0,.32.2,0.57,0.57,0,0,1,.63.51,0.56,0.56,0,0,1-.69.54,0.59,0.59,0,0,1-.71-0.58h0.39Z" transform="translate(-154 -310.5)"/><path class="cls-8" d="M224.43,398h0.42l-0.57,1v0.62h-0.39V399l-0.59-1h0.44l0.35,0.71Z" transform="translate(-154 -310.5)"/><path class="cls-8" d="M227.56,399.11a0.27,0.27,0,0,0,.33.26c0.14,0,.29,0,0.29-0.17s-0.22-.21-0.42-0.26a0.51,0.51,0,0,1-.54-0.5c0-.26.18-0.48,0.67-0.48a0.53,0.53,0,0,1,.62.5h-0.36c0-.09-0.07-0.18-0.28-0.18s-0.25.07-.25,0.16a0.31,0.31,0,0,0,.32.2,0.58,0.58,0,0,1,.63.51,0.56,0.56,0,0,1-.69.54,0.59,0.59,0,0,1-.71-0.58h0.39Z" transform="translate(-154 -310.5)"/><path class="cls-8" d="M230.89,398.32V398h1.37v0.32h-0.49v1.32h-0.38v-1.32h-0.49Z" transform="translate(-154 -310.5)"/><path class="cls-8" d="M235.92,398.66V399h-0.8v0.36h0.93v0.32h-1.31V398H236v0.32h-0.91v0.33h0.8Z" transform="translate(-154 -310.5)"/><path class="cls-8" d="M238.93,398.47h0v1.17h-0.38V398h0.54l0.39,1.12,0.39-1.12h0.54v1.63H240v-1.17h0l-0.41,1.17h-0.26Z" transform="translate(-154 -310.5)"/><path class="cls-8" d="M206.34,397l2.16-3.84h1.56l2.1,3.84h-1.27l-0.38-.68H208l-0.37.68h-1.32Zm2.11-1.49h1.65L209.26,394Z" transform="translate(-154 -310.5)"/><path class="cls-8" d="M213.73,397l-2-3.84H213l1.51,2.9,1.55-2.9h1.3L215.21,397h-1.48Z" transform="translate(-154 -310.5)"/><path class="cls-8" d="M216.83,397l2.16-3.84h1.56l2.1,3.84h-1.27l-0.38-.68h-2.48l-0.37.68h-1.32Zm2.11-1.49h1.65L219.75,394Z" transform="translate(-154 -310.5)"/><path class="cls-8" d="M223.18,397v-3.84h3.31a3.73,3.73,0,0,1,.82.06,0.82,0.82,0,0,1,.6.49,2,2,0,0,1,.1.69,1.07,1.07,0,0,1-.33.92,1.94,1.94,0,0,1-.74.21h0.19a1.21,1.21,0,0,1,.55.11,0.81,0.81,0,0,1,.28.73V397h-1.18v-0.48a0.4,0.4,0,0,0-.31-0.48l-0.34,0h-1.79v1h-1.16Zm1.16-1.91h1.82a1.56,1.56,0,0,0,.48,0,0.37,0.37,0,0,0,.2-0.39,0.58,0.58,0,0,0-.13-0.46,0.9,0.9,0,0,0-.5-0.09h-1.86v1Z" transform="translate(-154 -310.5)"/><path class="cls-8" d="M229,397v-3.84h3.32a5.06,5.06,0,0,1,.86.06,1,1,0,0,1,.76.51,3.12,3.12,0,0,1,.2,1.35,7.39,7.39,0,0,1,0,.84,1.09,1.09,0,0,1-.94,1,4.67,4.67,0,0,1-.69,0H229Zm1.17-.91h2a1.76,1.76,0,0,0,.47,0,0.48,0.48,0,0,0,.33-0.4,3.16,3.16,0,0,0,0-.55,1.46,1.46,0,0,0-.13-0.75,0.81,0.81,0,0,0-.69-0.23h-2v2Z" transform="translate(-154 -310.5)"/><path class="cls-8" d="M234.51,397l2.16-3.84h1.56l2.1,3.84h-1.27l-0.38-.68H236.2l-0.37.68h-1.32Zm2.11-1.49h1.65L237.44,394Z" transform="translate(-154 -310.5)"/><path class="cls-1" d="M223.83,525.2l-16.29,6.54v20.69L223.83,559l16.28-6.51,0-20.73Z" transform="translate(-154 -310.5)"/><rect class="cls-2" x="69.53" y="214.6" width="0.57" height="21.1"/><polygon class="cls-2" points="53.53 242.06 68.97 236.06 85.5 242.5 85.81 241.98 68.9 235.56 53.01 241.84 53.53 242.06"/><polygon class="cls-3" points="54.04 241.44 60.4 222.73 69.84 219.14 63.63 237.65 54.04 241.44"/><polyline class="cls-4" points="64.82 231.22 56.22 234.67 68.29 239.48"/><polygon class="cls-9" points="79.31 244.15 69.84 219.14 60.39 222.71 69.87 247.94 79.31 244.15"/><polygon class="cls-10" points="69.83 247.94 74.87 232.77 73.06 233.35 82.4 222.73 85.63 229.28 84.44 229.67 79.58 244.05 69.83 247.94"/><path class="cls-1" d="M386.92,529.67a2.2,2.2,0,1,1-2.2,2.2A2.2,2.2,0,0,1,386.92,529.67Zm0,4.07a1.87,1.87,0,1,0-1.79-1.87A1.82,1.82,0,0,0,386.92,533.74Zm-0.8-3h1a0.63,0.63,0,0,1,.72.63,0.51,0.51,0,0,1-.37.5v0a0.45,0.45,0,0,1,.32.53,0.83,0.83,0,0,0,.09.52h-0.42a0.72,0.72,0,0,1-.08-0.51c0-.2,0-0.41-0.48-0.41h-0.33v0.91h-0.41v-2.2Zm0.41,1H387a0.33,0.33,0,0,0,.4-0.35c0-.26-0.18-0.33-0.45-0.33h-0.43v0.68Z" transform="translate(-154 -310.5)"/><path class="cls-1" d="M258.14,551.38v1.19H255V554h3.67v1.26h-5.2v-6.46h5.1v1.25H255v1.31h3.16Z" transform="translate(-154 -310.5)"/><path class="cls-1" d="M268.52,548.81h3.3a1.91,1.91,0,0,1,2.2,1.83,1.57,1.57,0,0,1-1.13,1.62v0a1.41,1.41,0,0,1,.92,1.57,2.31,2.31,0,0,0,.25,1.42h-1.55a3.17,3.17,0,0,1-.26-1.64,0.89,0.89,0,0,0-1-.73H270v2.37h-1.52v-6.46Zm1.52,2.9h1.39a0.8,0.8,0,0,0,1-.81c0-.64-0.38-0.84-1-0.84H270v1.65Z" transform="translate(-154 -310.5)"/><path class="cls-1" d="M287.1,548.81c1.32,0,2.44.49,2.44,2.09,0,2-1.69,2.15-2.47,2.15h-1.45v2.22h-1.53v-6.46h3Zm-1.49,3h1.19a0.89,0.89,0,1,0,0-1.73h-1.19v1.73Z" transform="translate(-154 -310.5)"/><path class="cls-1" d="M307.54,553.18a1,1,0,0,0,1.29,1c0.57,0,1.16-.1,1.16-0.66s-0.86-.83-1.64-1c-1.17-.25-2.13-0.55-2.13-2,0-1,.7-1.91,2.65-1.91,1.79,0,2.44,1,2.45,2h-1.44c0-.36-0.29-0.7-1.11-0.7s-1,.29-1,0.61c0,0.56.73,0.68,1.28,0.8,1.36,0.25,2.5.6,2.5,2,0,0.53-.14,2.15-2.73,2.15-2.38,0-2.81-1.42-2.81-2.28h1.54Z" transform="translate(-154 -310.5)"/><path class="cls-1" d="M324.76,548.81h1.67l-2.26,4v2.43h-1.53v-2.43l-2.34-4H322l1.37,2.8Z" transform="translate(-154 -310.5)"/><path class="cls-1" d="M337.14,553.18a1.05,1.05,0,0,0,1.29,1c0.57,0,1.15-.1,1.15-0.66s-0.86-.83-1.65-1c-1.16-.25-2.13-0.55-2.13-2,0-1,.7-1.91,2.65-1.91,1.79,0,2.43,1,2.45,2h-1.43c0-.36-0.29-0.7-1.11-0.7s-1,.29-1,0.61c0,0.56.71,0.68,1.27,0.8,1.35,0.25,2.5.6,2.5,2,0,0.53-.15,2.15-2.73,2.15-2.38,0-2.81-1.42-2.81-2.28h1.54Z" transform="translate(-154 -310.5)"/><path class="cls-1" d="M350.34,550.07v-1.25h5.43v1.25h-2v5.21H352.3v-5.21h-2Z" transform="translate(-154 -310.5)"/><path class="cls-1" d="M370.22,551.38v1.19h-3.15V554h3.68v1.26h-5.2v-6.46h5.11v1.25h-3.59v1.31h3.15Z" transform="translate(-154 -310.5)"/><path class="cls-1" d="M382.16,550.66h0v4.62h-1.52v-6.46h2.14l1.54,4.44,1.54-4.44H388v6.46h-1.53v-4.62h0l-1.62,4.62h-1Z" transform="translate(-154 -310.5)"/><path class="cls-1" d="M253.17,544.85l8.53-15.18h6.19l8.3,15.18h-5l-1.5-2.7h-9.82l-1.46,2.7h-5.21ZM261.5,539H268l-3.32-6.07Z" transform="translate(-154 -310.5)"/><path class="cls-1" d="M282.42,544.85l-8.09-15.18h5.08l6,11.47,6.13-11.47h5.13l-8.4,15.18h-5.85Z" transform="translate(-154 -310.5)"/><path class="cls-1" d="M294.7,544.85l8.53-15.18h6.19l8.3,15.18h-5l-1.51-2.7h-9.81l-1.46,2.7H294.7ZM303,539h6.54l-3.32-6.07Z" transform="translate(-154 -310.5)"/><path class="cls-1" d="M319.81,544.85V529.67h13.1a14.79,14.79,0,0,1,3.25.25,3.23,3.23,0,0,1,2.37,2,7.73,7.73,0,0,1,.4,2.73c0,1.82-.43,3-1.29,3.64a7.65,7.65,0,0,1-2.94.81l0.76,0a4.79,4.79,0,0,1,2.16.43c0.73,0.45,1.1,1.42,1.1,2.9v2.41H334v-1.9q0-1.71-1.21-1.88a9.76,9.76,0,0,0-1.33-.06h-7.09v3.85h-4.6Zm4.6-7.55h7.2a6.16,6.16,0,0,0,1.89-.18,1.48,1.48,0,0,0,.78-1.53,2.28,2.28,0,0,0-.52-1.84,3.57,3.57,0,0,0-2-.35h-7.37v3.89Z" transform="translate(-154 -310.5)"/><path class="cls-1" d="M342.72,544.85V529.67h13.12a20,20,0,0,1,3.39.25,4,4,0,0,1,3,2q0.78,1.4.78,5.34a29.25,29.25,0,0,1-.12,3.32q-0.52,3.59-3.73,4.12a18.5,18.5,0,0,1-2.75.14H342.72Zm4.62-3.6h7.74a7,7,0,0,0,1.88-.18,1.9,1.9,0,0,0,1.3-1.57,12.53,12.53,0,0,0,.12-2.19,5.78,5.78,0,0,0-.5-3c-0.43-.6-1.33-0.9-2.72-0.9h-7.81v7.82Z" transform="translate(-154 -310.5)"/><path class="cls-1" d="M364.66,544.85l8.54-15.18h6.19l8.3,15.18h-5l-1.51-2.7h-9.81l-1.46,2.7h-5.22ZM373,539h6.55l-3.32-6.07Z" transform="translate(-154 -310.5)"/></svg>